<mxfile host="65bd71144e">
    <diagram id="jlbz8QbFJrKO7rKDT4fe" name="Page-1">
        <mxGraphModel dx="932" dy="648" grid="1" gridSize="10" guides="1" tooltips="1" connect="1" arrows="1" fold="1" page="1" pageScale="1" pageWidth="827" pageHeight="1169" math="0" shadow="0">
            <root>
                <mxCell id="0"/>
                <mxCell id="1" parent="0"/>
                <mxCell id="2" value="5" style="ellipse;whiteSpace=wrap;html=1;aspect=fixed;" parent="1" vertex="1">
                    <mxGeometry x="374" y="110" width="80" height="80" as="geometry"/>
                </mxCell>
                <mxCell id="3" value="2" style="ellipse;whiteSpace=wrap;html=1;aspect=fixed;" parent="1" vertex="1">
                    <mxGeometry x="230" y="220" width="80" height="80" as="geometry"/>
                </mxCell>
                <mxCell id="4" value="8" style="ellipse;whiteSpace=wrap;html=1;aspect=fixed;" parent="1" vertex="1">
                    <mxGeometry x="540" y="220" width="80" height="80" as="geometry"/>
                </mxCell>
                <mxCell id="7" value="1" style="ellipse;whiteSpace=wrap;html=1;aspect=fixed;" parent="1" vertex="1">
                    <mxGeometry x="120" y="350" width="80" height="80" as="geometry"/>
                </mxCell>
                <mxCell id="8" value="3" style="ellipse;whiteSpace=wrap;html=1;aspect=fixed;" parent="1" vertex="1">
                    <mxGeometry x="270" y="350" width="80" height="80" as="geometry"/>
                </mxCell>
                <mxCell id="9" value="6" style="ellipse;whiteSpace=wrap;html=1;aspect=fixed;" parent="1" vertex="1">
                    <mxGeometry x="460" y="350" width="80" height="80" as="geometry"/>
                </mxCell>
                <mxCell id="10" value="10" style="ellipse;whiteSpace=wrap;html=1;aspect=fixed;" parent="1" vertex="1">
                    <mxGeometry x="620" y="350" width="80" height="80" as="geometry"/>
                </mxCell>
                <mxCell id="11" value="" style="endArrow=classic;html=1;exitX=0;exitY=0.5;exitDx=0;exitDy=0;" parent="1" source="2" target="3" edge="1">
                    <mxGeometry width="50" height="50" relative="1" as="geometry">
                        <mxPoint x="390" y="450" as="sourcePoint"/>
                        <mxPoint x="440" y="400" as="targetPoint"/>
                    </mxGeometry>
                </mxCell>
                <mxCell id="12" value="" style="endArrow=classic;html=1;exitX=0;exitY=1;exitDx=0;exitDy=0;entryX=0.775;entryY=0.038;entryDx=0;entryDy=0;entryPerimeter=0;" parent="1" source="3" target="7" edge="1">
                    <mxGeometry width="50" height="50" relative="1" as="geometry">
                        <mxPoint x="246.52" y="290" as="sourcePoint"/>
                        <mxPoint x="170.00045529617594" y="370.93413382135236" as="targetPoint"/>
                    </mxGeometry>
                </mxCell>
                <mxCell id="13" value="" style="endArrow=classic;html=1;exitX=1;exitY=0.5;exitDx=0;exitDy=0;" parent="1" source="2" target="4" edge="1">
                    <mxGeometry width="50" height="50" relative="1" as="geometry">
                        <mxPoint x="390" y="450" as="sourcePoint"/>
                        <mxPoint x="440" y="400" as="targetPoint"/>
                    </mxGeometry>
                </mxCell>
                <mxCell id="14" value="" style="endArrow=classic;html=1;exitX=0;exitY=1;exitDx=0;exitDy=0;" parent="1" source="4" edge="1">
                    <mxGeometry width="50" height="50" relative="1" as="geometry">
                        <mxPoint x="390" y="450" as="sourcePoint"/>
                        <mxPoint x="510" y="350" as="targetPoint"/>
                    </mxGeometry>
                </mxCell>
                <mxCell id="15" value="" style="endArrow=classic;html=1;exitX=1;exitY=1;exitDx=0;exitDy=0;entryX=0.5;entryY=0;entryDx=0;entryDy=0;" parent="1" source="4" target="10" edge="1">
                    <mxGeometry width="50" height="50" relative="1" as="geometry">
                        <mxPoint x="390" y="450" as="sourcePoint"/>
                        <mxPoint x="440" y="400" as="targetPoint"/>
                    </mxGeometry>
                </mxCell>
                <mxCell id="16" value="" style="endArrow=classic;html=1;entryX=0.5;entryY=0;entryDx=0;entryDy=0;" parent="1" source="3" target="8" edge="1">
                    <mxGeometry width="50" height="50" relative="1" as="geometry">
                        <mxPoint x="390" y="450" as="sourcePoint"/>
                        <mxPoint x="440" y="400" as="targetPoint"/>
                    </mxGeometry>
                </mxCell>
                <mxCell id="17" value="Angel" style="text;html=1;strokeColor=none;fillColor=none;align=center;verticalAlign=middle;whiteSpace=wrap;rounded=0;" parent="1" vertex="1">
                    <mxGeometry x="460" y="100" width="40" height="20" as="geometry"/>
                </mxCell>
                <mxCell id="18" value="Bartolomeo" style="text;html=1;strokeColor=none;fillColor=none;align=center;verticalAlign=middle;whiteSpace=wrap;rounded=0;" parent="1" vertex="1">
                    <mxGeometry x="630" y="210" width="40" height="20" as="geometry"/>
                </mxCell>
                <mxCell id="19" value="Juan" style="text;html=1;strokeColor=none;fillColor=none;align=center;verticalAlign=middle;whiteSpace=wrap;rounded=0;" parent="1" vertex="1">
                    <mxGeometry x="180" y="220" width="40" height="20" as="geometry"/>
                </mxCell>
                <mxCell id="20" value="RubÃ­" style="text;html=1;strokeColor=none;fillColor=none;align=center;verticalAlign=middle;whiteSpace=wrap;rounded=0;" parent="1" vertex="1">
                    <mxGeometry x="50" y="380" width="40" height="20" as="geometry"/>
                </mxCell>
                <mxCell id="21" value="Jaime" style="text;html=1;strokeColor=none;fillColor=none;align=center;verticalAlign=middle;whiteSpace=wrap;rounded=0;" parent="1" vertex="1">
                    <mxGeometry x="360" y="390" width="40" height="20" as="geometry"/>
                </mxCell>
                <mxCell id="22" value="AMLO" style="text;html=1;strokeColor=none;fillColor=none;align=center;verticalAlign=middle;whiteSpace=wrap;rounded=0;" parent="1" vertex="1">
                    <mxGeometry x="540" y="410" width="40" height="20" as="geometry"/>
                </mxCell>
                <mxCell id="23" value="Miguel" style="text;html=1;strokeColor=none;fillColor=none;align=center;verticalAlign=middle;whiteSpace=wrap;rounded=0;" parent="1" vertex="1">
                    <mxGeometry x="730" y="390" width="40" height="20" as="geometry"/>
                </mxCell>
            </root>
        </mxGraphModel>
    </diagram>
</mxfile>